<?xml version="1.0" standalone="no"?>
<!DOCTYPE svg PUBLIC "-//W3C//DTD SVG 20010904//EN"
 "http://www.w3.org/TR/2001/REC-SVG-20010904/DTD/svg10.dtd">
<svg version="1.0" xmlns="http://www.w3.org/2000/svg"
 width="260.000000pt" height="260.000000pt" viewBox="0 0 260.000000 260.000000"
 preserveAspectRatio="xMidYMid meet">
<metadata>
Created by potrace 1.14, written by Peter Selinger 2001-2017
</metadata>
<g transform="translate(0.000000,260.000000) scale(0.100000,-0.100000)"
fill="#000000" stroke="none">
<path d="M1076 2380 c-153 -25 -328 -93 -457 -180 -88 -60 -219 -189 -280
-277 -69 -100 -135 -243 -166 -360 -23 -87 -26 -116 -26 -268 0 -152 3 -181
26 -268 31 -117 97 -260 166 -360 61 -88 192 -217 280 -277 93 -62 237 -127
348 -157 87 -23 116 -26 268 -26 152 0 181 3 268 26 117 31 260 97 360 166 88
61 217 192 277 280 62 93 127 237 157 348 23 87 26 116 26 268 0 152 -3 181
-26 268 -52 196 -157 375 -300 514 -205 199 -444 300 -727 308 -74 2 -162 0
-194 -5z m505 -995 c126 -335 229 -611 229 -613 0 -1 -62 -1 -137 0 l-136 3
-42 125 -42 125 -221 3 -221 2 -42 -130 -41 -130 -134 0 c-74 0 -134 4 -134 8
0 5 97 269 216 588 119 318 221 592 226 607 l10 28 120 -3 120 -3 229 -610z"/>
<path d="M1226 1660 c-3 -8 -37 -108 -75 -222 l-70 -208 150 0 c82 0 149 3
149 8 0 25 -149 434 -154 422z"/>
</g>
</svg>
